<?xml version="1.0" encoding="UTF-8"?>
<svg id="Capa_1" xmlns="http://www.w3.org/2000/svg" version="1.1" viewBox="0 0 115.15 110.73">
  <!-- Generator: Adobe Illustrator 29.4.0, SVG Export Plug-In . SVG Version: 2.1.0 Build 152)  -->
  <defs>
    <style>
      .st0 {
        fill: #e5563f;
      }
    </style>
  </defs>
  <path class="st0" d="M32.13,53.06c-.34-2.47-3-3.49-5.8-2.97-2.9.53-3.44.85-6.37,1.19-8.06.94-15.96-3.49-18.71-10.08-2.86-6.84-.76-16.8,5.81-21.76,3.5-2.64,8.54-3.54,12.98-3.76,4.99-.25,17.59,1.96,24.54,1.06,11.89-1.54,19.29-5.17,24.44-9.87,10.79-9.84,37.23-11.39,44.43,11.04,7.6,23.66-12.44,34.47-17.36,35.24-3.01.47-5.07,1.1-5.74,3.99-.69,2.96.48,8.53.11,11.55-.24,2.02-2.98,4.62-6.55,2.8-4.96-2.53-9.82-8.07-18.56-9.2-9.26-1.2-15.97,2.25-20.26,5.08s-6.75,6.65-8.47,8.45c-1.33,1.4-4.05,1.86-5.27,1.04-1.04-.71-2.94-2.84-1.1-5.24,1.39-1.81,4-2.92,4.88-4.57,1.45-2.72.57-4.18-.65-6.33-1.54-2.71-1.95-4.69-2.35-7.64ZM79.33,59.54c2.71.96,3.58-.03,4.22-.71.72-.77,1.19-3.02-.85-4.09-2.88-1.5-4.53-2.56-10.16-7.18-5.64-4.63-5.59-6.14-8.87-10.12-.98-1.19-2.97-.32-3.83.22-5.47,3.43-10.98,7.37-17.06,9.06-4.9,1.97-6.17,4.15-4.98,7.85.62,1.93,2.27,4.51,6.31,3.31,7.71-2.29,14.56-3.4,22.43-2.6,3.45.35,11.85,3.93,12.8,4.26ZM31.81,23.01c-5.92-.52-12.02-3.11-16.87-1.43-6.39,2.21-10.94,10.43-8.1,17.04,2.99,6.95,8.43,6.65,12.88,6.62,11.91-.1,19.5-1.94,29.88-7.68,4.99-2.76,10.42-7.75,15.69-7.49,4.06.2,5.88,4.04,6.18,5.68.51,2.79,4.41,14.58,19.55,12.31,9.81-1.47,12.24-5.5,15.44-10.08,2.75-3.93,4.07-10.08,2.95-14.8-2.01-8.46-7.58-15.52-19.39-16.22-8.92-.53-16.37,6.43-23.88,10.35-10.52,5.5-22.78,6.73-34.33,5.71Z"/>
  <path class="st0" d="M63.13,76.57c0-.34-.02-.68,0-1.01.17-2.85,2.35-5.92,4.3-5.65,2.99.42,3.77,2.81,4.09,5.41.05.44.09.9.08,1.34-.07,3.88-1.93,6.76-4.32,6.72-2.2-.04-4.19-3.29-4.15-6.81Z"/>
  <path class="st0" d="M44.44,76.73c-.02-3.88,1.73-6.79,4.08-6.79,2.27,0,4.29,3.13,4.34,6.72.05,3.53-1.93,6.68-4.26,6.79-2.35.11-4.13-2.77-4.16-6.72Z"/>
  <path class="st0" d="M58.64,84.15c2.83.32,3.62,1.24,3.93,2.42.54,2.08-1.27,4.77-6.9,4.72-4.71-.04-6.73-2.68-3.6-5.89,1.03-1.06,4.76-1.44,6.57-1.24Z"/>
  <path class="st0" d="M76.93,96.42c1.93-1.17,2.72-2.5,3.51-2.97,1.25,4.63-5.17,11.24-9.81,11.18-1-.01-3.93.77-4.25,1.77-1.5,4.65-6.59,5.26-9.25,3.24-2.22-1.68-1.78-5.5-6.06-4.6-3.5.74-7.25-.03-8.95-1.04-4.6-2.75-4.76-4.28-5.07-5.33-.81-2.75,2.14,0,5.57-.97,4.65-1.31,6.61-3.61,6.61-3.61,2.31-1.12,5.43-.73,6.92,1.04,1.11,1.32,2.54,1.61,3.8-.46,1.95-2.89,5.09-2.63,7.02-1.5,1.09.63,2.48,2.35,3.67,3.09,1.97,1.22,4.18,1.46,6.28.18ZM62.8,103.89l-4.5-3.26s-2.22,1.22-2.37,2.82c-.07.69,2.14,2.3,3.78,2.16,2.47-.21,3.1-1.71,3.1-1.71Z"/>
</svg>