<?xml version="1.0" encoding="UTF-8"?>
<svg id="Capa_1" xmlns="http://www.w3.org/2000/svg" version="1.1" viewBox="0 0 171.7 48.94">
  <!-- Generator: Adobe Illustrator 29.4.0, SVG Export Plug-In . SVG Version: 2.1.0 Build 152)  -->
  <defs>
    <style>
      .st0 {
        fill: #e5563f;
      }
    </style>
  </defs>
  <g>
    <path class="st0" d="M12.04,25.64V3.43h5.42v17.57h11.42v4.63H12.04Z"/>
    <path class="st0" d="M51.53,12.95v12.69h-5.39v-5.49h-9.68v5.49h-5.49v-12.69c0-6.03,4.22-9.93,10.28-9.93s10.28,3.9,10.28,9.93ZM36.46,15.49h9.68v-2.54c0-3.27-2.03-5.2-4.88-5.2s-4.79,1.94-4.79,5.2v2.54Z"/>
    <path class="st0" d="M103.07,25.64V3.43h5.46v22.2h-5.46Z"/>
    <path class="st0" d="M112.08,14.53c0-6.66,5.04-11.48,12.02-11.48s11.99,4.79,11.99,11.48-5.04,11.48-12.02,11.48-11.99-4.79-11.99-11.48ZM130.51,14.53c0-4.03-2.7-6.79-6.41-6.79s-6.44,2.76-6.44,6.79,2.7,6.76,6.44,6.76,6.41-2.73,6.41-6.76Z"/>
    <path class="st0" d="M139.07,25.64v-12.66c0-6.06,4.22-9.93,10.28-9.93s10.31,3.87,10.31,9.93v12.66h-5.42v-12.66c0-3.3-2.03-5.23-4.88-5.23s-4.82,1.94-4.82,5.23v12.66h-5.46Z"/>
    <path class="st0" d="M78.54,17.26c-.49,2.4-2.17,3.74-4.7,3.74-2.98,0-4.76-1.94-4.76-5.33V3.42h-5.49v12.75c0,6.06,4,9.83,10.25,9.83s9.79-3.33,10.23-8.75h-5.53Z"/>
    <path class="st0" d="M88.93,3.04c-5.66,0-9.71,3.38-10.22,8.76h5.49c.42-2.58,2.26-4.07,4.73-4.07,2.85,0,4.88,1.94,4.88,5.23v12.66h5.42v-12.66c0-6.06-4.25-9.93-10.31-9.93Z"/>
  </g>
  <g>
    <path class="st0" d="M13.54,36.6c.89,0,1.64.11,2.24.63.65.56.81,1.35.81,1.91,0,1.25-.79,2.5-2.82,2.5h-.87v3.87h-.99v-8.9h1.61ZM12.91,40.7h.81c1.17,0,1.88-.59,1.88-1.61,0-1.41-1.32-1.55-1.96-1.55h-.73v3.16Z"/>
    <path class="st0" d="M22.23,43h-3.79l-1.07,2.51h-1.09l4.1-9.33,3.99,9.33h-1.09l-1.04-2.51ZM21.84,42.06l-1.49-3.56-1.52,3.56h3.02Z"/>
    <path class="st0" d="M25.62,45.5v-9.27l6.94,7.27v-6.9h.99v9.3l-6.94-7.27v6.87h-.99Z"/>
    <path class="st0" d="M40.75,43h-3.79l-1.07,2.51h-1.09l4.1-9.33,3.99,9.33h-1.09l-1.04-2.51ZM40.36,42.06l-1.49-3.56-1.52,3.56h3.02Z"/>
    <path class="st0" d="M44.14,36.6h1.81c.89,0,2.16.09,3.28,1.04.81.68,1.52,1.81,1.52,3.42,0,1.87-.92,2.87-1.56,3.42-.81.69-1.67,1.03-3.26,1.03h-1.8v-8.9ZM45.13,44.57h.87c.71,0,1.68-.08,2.55-.8.67-.56,1.2-1.44,1.2-2.71,0-2.14-1.49-3.52-3.75-3.52h-.87v7.03Z"/>
    <path class="st0" d="M57.19,37.54h-3.63v2.64h3.52v.93h-3.52v3.46h3.63v.93h-4.62v-8.9h4.62v.93Z"/>
    <path class="st0" d="M60.44,36.6c.6,0,1.49.04,2.16.49.52.35.97,1.03.97,1.98,0,1.36-.89,2.36-2.24,2.46l2.83,3.98h-1.2l-2.71-3.9h-.25v3.9h-.99v-8.9h1.43ZM60,40.73h.63c1.23,0,1.96-.59,1.96-1.63,0-.49-.15-.99-.71-1.31-.4-.23-.85-.25-1.28-.25h-.6v3.19Z"/>
    <path class="st0" d="M66.7,36.6v8.9h-.99v-8.9h.99ZM68.34,34.33l-2.04,1.56-.57-.43,1.68-1.73.93.6Z"/>
    <path class="st0" d="M73.9,43h-3.79l-1.07,2.51h-1.09l4.1-9.33,3.99,9.33h-1.09l-1.04-2.51ZM73.52,42.06l-1.49-3.56-1.52,3.56h3.02Z"/>
    <path class="st0" d="M87.25,42.25c-.24.33-.59.76-1.13,1.32l1.49,1.93h-1.23l-.96-1.24c-.77.77-1.85,1.4-2.87,1.4-1.45,0-2.58-1.05-2.58-2.47,0-.96.51-1.55.8-1.84.47-.47,1.31-.99,1.49-1.11-.6-.77-.88-1.31-.88-1.91,0-.93.65-1.88,1.94-1.88s1.88.89,1.88,1.79c0,.41-.12,1-.83,1.61-.23.2-.15.09-.72.57l1.85,2.39c.48-.51.76-.83,1.01-1.17l.72.6ZM82.84,40.98c-.65.4-1,.69-1.25.92-.25.23-.63.59-.63,1.28,0,.88.65,1.57,1.57,1.57s1.95-.91,2.28-1.23l-1.98-2.55ZM83.08,39.71l.59-.45c.51-.4.6-.72.6-1.03,0-.63-.49-.92-.96-.92-.55,0-.99.41-.99.97,0,.39.19.64.36.88l.4.55Z"/>
    <path class="st0" d="M98.8,38.57c-.28-.28-.71-.61-1.16-.83-.47-.21-1.01-.35-1.53-.35-2.06,0-3.58,1.65-3.58,3.71,0,2.42,1.96,3.63,3.59,3.63.6,0,1.19-.17,1.65-.41.51-.25.87-.59,1.03-.75v1.23c-.99.71-2.02.87-2.68.87-2.64,0-4.6-2-4.6-4.58s1.99-4.63,4.66-4.63c.53,0,1.56.07,2.63.88v1.23Z"/>
    <path class="st0" d="M100.14,41.06c0-2.66,2.07-4.6,4.63-4.6s4.63,1.95,4.63,4.6-2.05,4.6-4.63,4.6-4.63-1.96-4.63-4.6ZM101.15,41.06c0,2.04,1.61,3.67,3.62,3.67s3.62-1.63,3.62-3.67-1.61-3.67-3.62-3.67-3.62,1.63-3.62,3.67Z"/>
    <path class="st0" d="M111.22,45.5v-9.27l6.94,7.27v-6.9h.99v9.3l-6.94-7.27v6.87h-.99Z"/>
    <path class="st0" d="M125.5,37.54h-3.07v2.63h2.96v.93h-2.96v4.4h-.99v-8.9h4.06v.93Z"/>
    <path class="st0" d="M128.22,36.6v8.9h-.99v-8.9h.99Z"/>
    <path class="st0" d="M132.7,37.54v7.97h-.99v-7.97h-2.16v-.93h5.31v.93h-2.16Z"/>
    <path class="st0" d="M140.82,37.54h-3.63v2.64h3.52v.93h-3.52v3.46h3.63v.93h-4.62v-8.9h4.62v.93Z"/>
    <path class="st0" d="M144.06,36.6c.6,0,1.49.04,2.16.49.52.35.97,1.03.97,1.98,0,1.36-.89,2.36-2.24,2.46l2.83,3.98h-1.2l-2.71-3.9h-.25v3.9h-.99v-8.9h1.43ZM143.62,40.73h.63c1.23,0,1.96-.59,1.96-1.63,0-.49-.15-.99-.71-1.31-.4-.23-.85-.25-1.28-.25h-.6v3.19Z"/>
    <path class="st0" d="M150.32,36.6v8.9h-.99v-8.9h.99ZM151.96,34.33l-2.04,1.56-.57-.43,1.68-1.73.93.6Z"/>
    <path class="st0" d="M157.53,43h-3.79l-1.07,2.51h-1.09l4.1-9.33,3.99,9.33h-1.09l-1.04-2.51ZM157.14,42.06l-1.49-3.56-1.52,3.56h3.02Z"/>
  </g>
</svg>