<?xml version="1.0" encoding="UTF-8"?><svg id="Capa_1" xmlns="http://www.w3.org/2000/svg" viewBox="0 0 250 72.57"><defs><style>.cls-1{fill:#e64038;}</style></defs><path class="cls-1" d="M.19,38.27V.7h9.18v29.74h19.33v7.84H.19Z"/><path class="cls-1" d="M67.02,16.8v21.47h-9.13v-9.29h-16.37v9.29h-9.29v-21.47C32.24,6.6,39.38,0,49.63,0s17.39,6.6,17.39,16.8ZM41.52,21.1h16.37v-4.29c0-5.53-3.44-8.8-8.27-8.8s-8.11,3.27-8.11,8.8v4.29Z"/><path class="cls-1" d="M154.24,38.27V.7h9.23v37.58h-9.23Z"/><path class="cls-1" d="M169.48,19.49C169.48,8.21,178.02.05,189.83.05s20.29,8.11,20.29,19.43-8.54,19.43-20.34,19.43-20.29-8.11-20.29-19.43ZM200.67,19.49c0-6.82-4.56-11.49-10.84-11.49s-10.9,4.67-10.9,11.49,4.56,11.43,10.9,11.43,10.84-4.62,10.84-11.43Z"/><path class="cls-1" d="M215.16,38.27v-21.42C215.16,6.6,222.3.05,232.55.05s17.45,6.55,17.45,16.8v21.42h-9.18v-21.42c0-5.58-3.44-8.86-8.27-8.86s-8.16,3.27-8.16,8.86v21.42h-9.23Z"/><path class="cls-1" d="M112.73,24.1c-.84,4.06-3.67,6.32-7.95,6.32-5.05,0-8.05-3.27-8.05-9.02V.68h-9.29v21.58c0,10.25,6.76,16.64,17.34,16.64s16.56-5.63,17.32-14.8h-9.36Z"/><path class="cls-1" d="M130.3.04c-9.58,0-16.44,5.72-17.3,14.83h9.29c.71-4.37,3.82-6.88,8.01-6.88,4.83,0,8.27,3.27,8.27,8.86v21.42h9.18v-21.42C147.75,6.59,140.56.04,130.3.04Z"/><path class="cls-1" d="M2.73,56.83c1.51,0,2.78.18,3.79,1.06,1.11.95,1.38,2.28,1.38,3.23,0,2.12-1.33,4.22-4.76,4.22h-1.47v6.55H0v-15.06h2.73ZM1.67,63.76h1.38c1.99,0,3.18-.99,3.18-2.73,0-2.39-2.24-2.62-3.32-2.62h-1.24v5.35Z"/><path class="cls-1" d="M17.43,67.65h-6.41l-1.81,4.25h-1.85l6.93-15.79,6.75,15.79h-1.85l-1.76-4.25ZM16.78,66.07l-2.53-6.03-2.57,6.03h5.1Z"/><path class="cls-1" d="M23.17,71.89v-15.69l11.74,12.31v-11.68h1.67v15.74l-11.74-12.31v11.63h-1.67Z"/><path class="cls-1" d="M48.78,67.65h-6.41l-1.81,4.25h-1.85l6.93-15.79,6.75,15.79h-1.85l-1.76-4.25ZM48.13,66.07l-2.53-6.03-2.57,6.03h5.1Z"/><path class="cls-1" d="M54.52,56.83h3.07c1.51,0,3.66.16,5.56,1.76,1.38,1.15,2.57,3.07,2.57,5.78,0,3.16-1.56,4.86-2.64,5.78-1.38,1.17-2.82,1.74-5.51,1.74h-3.05v-15.06ZM56.19,70.31h1.47c1.2,0,2.85-.14,4.31-1.35,1.13-.95,2.03-2.44,2.03-4.58,0-3.61-2.53-5.96-6.35-5.96h-1.47v11.9Z"/><path class="cls-1" d="M76.6,58.41h-6.14v4.47h5.96v1.58h-5.96v5.85h6.14v1.58h-7.81v-15.06h7.81v1.58Z"/><path class="cls-1" d="M82.09,56.83c1.02,0,2.53.07,3.66.84.88.59,1.65,1.74,1.65,3.34,0,2.3-1.51,4-3.79,4.16l4.79,6.73h-2.03l-4.58-6.59h-.43v6.59h-1.67v-15.06h2.42ZM81.35,63.81h1.06c2.08,0,3.32-.99,3.32-2.76,0-.84-.25-1.67-1.2-2.21-.68-.38-1.45-.43-2.17-.43h-1.02v5.4Z"/><path class="cls-1" d="M92.68,56.83v15.06h-1.67v-15.06h1.67ZM95.46,52.99l-3.46,2.64-.97-.72,2.85-2.94,1.58,1.02Z"/><path class="cls-1" d="M104.88,67.65h-6.41l-1.81,4.25h-1.85l6.93-15.79,6.75,15.79h-1.85l-1.76-4.25ZM104.22,66.07l-2.53-6.03-2.57,6.03h5.1Z"/><path class="cls-1" d="M127.46,66.38c-.41.56-.99,1.29-1.92,2.24l2.53,3.27h-2.08l-1.63-2.1c-1.31,1.31-3.14,2.37-4.86,2.37-2.46,0-4.36-1.78-4.36-4.18,0-1.63.86-2.62,1.36-3.12.79-.79,2.21-1.67,2.53-1.87-1.02-1.31-1.49-2.21-1.49-3.23,0-1.58,1.11-3.18,3.27-3.18s3.18,1.51,3.18,3.03c0,.7-.2,1.69-1.4,2.73-.38.34-.25.16-1.22.97l3.14,4.04c.81-.86,1.29-1.4,1.72-1.99l1.22,1.02ZM120.01,64.24c-1.11.68-1.69,1.17-2.12,1.56-.43.38-1.06.99-1.06,2.17,0,1.49,1.11,2.66,2.66,2.66s3.3-1.54,3.86-2.08l-3.34-4.31ZM120.42,62.09l.99-.77c.86-.68,1.02-1.22,1.02-1.74,0-1.06-.84-1.56-1.63-1.56-.93,0-1.67.7-1.67,1.65,0,.65.32,1.08.61,1.49l.68.93Z"/><path class="cls-1" d="M147.02,60.15c-.47-.47-1.2-1.04-1.96-1.4-.79-.36-1.72-.59-2.6-.59-3.48,0-6.05,2.8-6.05,6.28,0,4.09,3.32,6.14,6.07,6.14,1.02,0,2.01-.29,2.8-.7.86-.43,1.47-.99,1.74-1.26v2.08c-1.67,1.2-3.41,1.47-4.54,1.47-4.47,0-7.79-3.39-7.79-7.75s3.36-7.84,7.88-7.84c.9,0,2.64.11,4.45,1.49v2.08Z"/><path class="cls-1" d="M149.28,64.37c0-4.49,3.5-7.79,7.84-7.79s7.84,3.3,7.84,7.79-3.48,7.79-7.84,7.79-7.84-3.32-7.84-7.79ZM150.99,64.37c0,3.46,2.73,6.21,6.12,6.21s6.12-2.76,6.12-6.21-2.73-6.21-6.12-6.21-6.12,2.76-6.12,6.21Z"/><path class="cls-1" d="M168.02,71.89v-15.69l11.74,12.31v-11.68h1.67v15.74l-11.74-12.31v11.63h-1.67Z"/><path class="cls-1" d="M192.19,58.41h-5.19v4.45h5.01v1.58h-5.01v7.45h-1.67v-15.06h6.87v1.58Z"/><path class="cls-1" d="M196.79,56.83v15.06h-1.67v-15.06h1.67Z"/><path class="cls-1" d="M204.38,58.41v13.48h-1.67v-13.48h-3.66v-1.58h8.99v1.58h-3.66Z"/><path class="cls-1" d="M218.11,58.41h-6.14v4.47h5.96v1.58h-5.96v5.85h6.14v1.58h-7.81v-15.06h7.81v1.58Z"/><path class="cls-1" d="M223.6,56.83c1.02,0,2.53.07,3.66.84.88.59,1.65,1.74,1.65,3.34,0,2.3-1.51,4-3.79,4.16l4.79,6.73h-2.03l-4.58-6.59h-.43v6.59h-1.67v-15.06h2.42ZM222.85,63.81h1.06c2.08,0,3.32-.99,3.32-2.76,0-.84-.25-1.67-1.2-2.21-.68-.38-1.45-.43-2.17-.43h-1.02v5.4Z"/><path class="cls-1" d="M234.19,56.83v15.06h-1.67v-15.06h1.67ZM236.97,52.99l-3.46,2.64-.97-.72,2.85-2.94,1.58,1.02Z"/><path class="cls-1" d="M246.39,67.65h-6.41l-1.81,4.25h-1.85l6.93-15.79,6.75,15.79h-1.85l-1.76-4.25ZM245.73,66.07l-2.53-6.03-2.57,6.03h5.1Z"/></svg>